<?xml version="1.0" encoding="utf-8"?>
<!-- Generator: Adobe Illustrator 26.1.0, SVG Export Plug-In . SVG Version: 6.00 Build 0)  -->
<svg version="1.1" id="Layer_1" xmlns="http://www.w3.org/2000/svg" xmlns:xlink="http://www.w3.org/1999/xlink" x="0px" y="0px"
	 viewBox="0 0 392.3 409.2" style="enable-background:new 0 0 392.3 409.2;" xml:space="preserve">
<style type="text/css">
	.st0{fill:#D1D3D4;}
	.st1{fill:none;stroke:#D1D3D4;stroke-width:4;stroke-miterlimit:10;}
	.st2{fill:#D1D3D4;stroke:#D1D3D4;stroke-miterlimit:10;}
</style>
<g>
	<path class="st0" d="M193.3,64.8L162.1,96c0.9,0.2,1.7,0.6,2.4,1.3c0.3,0.3,0.6,0.7,0.8,1.1l28-28l142,142l-142,142l-142-142
		l65.7-65.7c-1.2-0.6-2.3-1.6-2.6-3l-68.7,68.7L193.3,360l147.6-147.6L193.3,64.8z"/>
</g>
<rect x="115" y="96.2" class="st1" width="50.6" height="50.6"/>
<g>
	<g>
		<g>
			<g>
				<g>
					<path class="st0" d="M360.3,337.3c0.1,0.4,0.4,0.2,0.5,0.2C360.5,336.9,360.2,337.4,360.3,337.3z"/>
					<polygon class="st0" points="357.9,330.6 358.1,330.7 357.5,329.8 					"/>
					<path class="st0" d="M356.6,324.2c-0.6,0.8,0.6,2.3,0.6,3.5l-0.1,0.2l0.7,0.4C357.3,326.9,356.6,325.2,356.6,324.2z"/>
					<path class="st0" d="M357.4,320.5c-0.2,0.3-0.4-0.7,0.1,0.8c0-0.1,0-0.1,0-0.2C357.5,321,357.4,320.8,357.4,320.5z"/>
					<path class="st0" d="M357.5,321.1C357.7,321.8,357.6,320.6,357.5,321.1L357.5,321.1z"/>
					<path class="st0" d="M356.7,318l0.4,0.8c0.1-0.2,0-1,0.2-0.8C357,317.2,356.9,317.4,356.7,318z"/>
					<path class="st0" d="M356,317.3l0.2,0.4C356.3,317.6,356.3,317.5,356,317.3z"/>
					<path class="st0" d="M356.6,318.6l-0.4-0.9c-0.1,0.2-0.3,0.2,0.2,0.4C356.2,318.1,356.4,318.3,356.6,318.6z"/>
					<path class="st0" d="M356.7,319.2c0,0.5,0,1.2-0.4,0.4C356.7,321.3,357.1,320.9,356.7,319.2z"/>
					<path class="st0" d="M355.8,324l-0.1,0.7l0.4,0.5C355.9,325,356,323.9,355.8,324z"/>
					<path class="st0" d="M355.9,312.4c-0.2,0-0.3,0.4-0.5,0.5l0.3,0.6C355.8,313.1,355.7,312.5,355.9,312.4z"/>
					<path class="st0" d="M355.4,312.9l-0.5-0.9C355.1,312.8,355.3,313,355.4,312.9z"/>
					<polygon class="st0" points="355.2,317.3 356.1,318.8 355.1,317 					"/>
					<polygon class="st0" points="355.2,308.6 355.6,309.1 354.9,308.2 					"/>
					<path class="st0" d="M354.6,306.1c0.4,0.4,0.4-0.7,0.6-0.3c-0.2-0.7-0.6-1.2-0.9-1.7C354.6,304.7,354.7,305.3,354.6,306.1z"/>
					<path class="st0" d="M353.8,303.4c0.1,0.3,0.3,0.5,0.5,0.8C354.2,303.9,354.1,303.6,353.8,303.4z"/>
					<path class="st0" d="M354.7,310.2c0.1-0.1,0.3-0.3,0.3-0.9l-0.3,0.5C354.6,310,354.7,310.1,354.7,310.2z"/>
					<path class="st0" d="M354.6,309.9L354.6,309.9c-0.1-0.4-0.1-0.7-0.1-0.9C354.5,309.1,354.5,309.4,354.6,309.9z"/>
					<path class="st0" d="M354.7,310.3C354.7,310.3,354.7,310.3,354.7,310.3C354.6,310.3,354.6,310.3,354.7,310.3z"/>
					<path class="st0" d="M355.1,314.6c-0.4-0.5-0.9-1.7-1-0.4C354.5,314.5,354.5,313.8,355.1,314.6z"/>
					<path class="st0" d="M354.3,310.9l0.1,1.1c0.1,0,0.2-0.3,0.4,0L354.3,310.9z"/>
					<polygon class="st0" points="354,310.4 354.3,310.9 354.2,310.5 					"/>
					<path class="st0" d="M353.8,305.2c-0.3-0.4-0.4-0.9-0.5-1.5c0,0.6,0.1,1.2,0.2,1.8C353.7,305.7,354,305.9,353.8,305.2z"/>
					<path class="st0" d="M354.2,307.5C354.1,307.5,354.1,307.4,354.2,307.5C354.1,307.5,354.1,307.5,354.2,307.5z"/>
					<polygon class="st0" points="352.1,298.3 352.1,298.4 352.2,298.4 					"/>
					<path class="st0" d="M353.5,305.7c0,0.5,0.2,0.7,0.4,0.9c-0.1-0.3-0.2-0.7-0.3-1.1C353.5,305.6,353.4,305.6,353.5,305.7z"/>
					<path class="st0" d="M353.3,301.9c0,0.3-0.1,0.5-0.1,0.8C353.3,302.4,353.4,301.9,353.3,301.9z"/>
					<path class="st0" d="M354.2,307.2L354.2,307.2C354.3,307.1,354.2,307.1,354.2,307.2z"/>
					<path class="st0" d="M354.2,307.2c-0.1-0.2-0.2-0.4-0.4-0.5c0.1,0.3,0.2,0.5,0.3,0.7C354.1,307.3,354.2,307.3,354.2,307.2z"/>
					<path class="st0" d="M349.1,297.2c0.4,0,1,1.1,0.8,2.2c0.5,0.9,1.6,0,2.2-1c-0.2,0-0.3,0-0.8-1c-0.1,0.4,0,2.4-0.6,1.6
						c-0.5-1.3-0.1-1.2,0-1.9c-0.4,0.7-1.1-1.6-1.7-1.2l0.5,1.2C349.4,297.2,349.1,296.8,349.1,297.2z"/>
					<path class="st0" d="M352.4,300.4l0.1,0.4c0-0.5,0.1-0.9,0.2-1.6c-0.3-0.7-0.5-0.8-0.6-0.8l0.4,2.1L352.4,300.4z"/>
					<path class="st0" d="M353,302.7c-0.5-0.2-0.9-1.2-1.2-0.5c0.3,1.2,0.5,0.8,0.9,1.5C352.1,301.7,353,304.2,353,302.7
						c0.1,0.4,0.2,0.8,0.3,1.1c0-0.4,0-0.7,0-1.1c0,0,0,0,0,0.1l0,0l0,0c0,0.1-0.1,0.1-0.1,0c0,0,0,0,0,0
						C353.1,302.7,353,302.7,353,302.7c0-0.6,0.1-0.1,0.2,0.1c0,0,0,0,0.1,0l0,0l-0.6-2C352.6,301.2,352.7,301.8,353,302.7z"/>
					<path class="st0" d="M353,313.3C353,313.2,353,313.2,353,313.3C353,313.1,352.9,313,353,313.3z"/>
					<path class="st0" d="M353,312.4c0.1,0.1,0.3,0.2,0.3,0.7c0,0.4-0.2,0-0.3,0.1c0.2,0.3,0.5,0.9,0.5,0l-0.1-0.1
						c0-0.8,0.3-2,0.4-1.9C353.5,311.5,353.3,311.8,353,312.4z"/>
					<path class="st0" d="M352.9,307.5l-0.6-1.6l-0.2,0.9l0.2-0.1C352.5,307.7,352.7,307.4,352.9,307.5z"/>
					<polygon class="st0" points="352.3,298 352.8,298.2 352,297.3 					"/>
					<polygon class="st0" points="351.8,295.9 352.2,295.9 351.9,295.3 					"/>
					<path class="st0" d="M280.1,305.7l0.2,0.5C280.2,305.9,280.1,305.8,280.1,305.7z"/>
					<path class="st0" d="M279.4,302.1l-0.2,0C279.3,302.2,279.4,302.2,279.4,302.1z"/>
					<path class="st0" d="M318,270.3c-0.8-0.2-1.7-0.6-1.5-0.2l0.3,0.4C317.2,270.3,317.6,270.2,318,270.3z"/>
					<path class="st0" d="M281.7,280.4c0.1,0,0.2,0.1,0.2,0.1c0.1-0.2,0.3-0.4,0.4-0.5C282.1,280.1,281.9,280.3,281.7,280.4z"/>
					<path class="st0" d="M281.5,282.3l-1-0.1C280.8,282.2,281.1,282.3,281.5,282.3z"/>
					<path class="st0" d="M284.6,325.1l0.6,0.5C284.9,324.7,284.8,325.2,284.6,325.1z"/>
					<path class="st0" d="M347,273.5c0-0.7,0-1.2-0.1-1.6C346.9,272.7,346.6,273.4,347,273.5z"/>
					<path class="st0" d="M275.3,305.2c0.1,0.3,0.3,0.4,0.3,0.4C275.5,305.3,275.4,305.1,275.3,305.2z"/>
					<path class="st0" d="M346.5,269.6c0,0.2,0,0.4,0,0.6c0.1,0.3,0.2,0.6,0.3,0.9c0.1,0.2,0.1,0.5,0.2,0.8c0-0.3,0-0.6,0-0.9
						c0-0.1,0-0.1-0.1-0.2c0-0.1-0.1-0.3-0.1-0.4C346.7,270.1,346.6,269.8,346.5,269.6z"/>
					<path class="st0" d="M330.8,341.2c0.1,0,0.1,0,0.2,0C331,341.2,330.9,341.2,330.8,341.2z"/>
					<path class="st0" d="M352.3,341.2c-0.2,0.1-0.5,0.1-0.8,0.2C351.6,341.5,351.9,341.4,352.3,341.2z"/>
					<path class="st0" d="M350.2,287C350.3,287.5,350.2,287.1,350.2,287L350.2,287z"/>
					<path class="st0" d="M349,289.6c-0.1-0.1-0.1-0.2-0.2-0.1C348.8,289.5,348.9,289.6,349,289.6z"/>
					<path class="st0" d="M341.8,267.9C341.8,267.9,341.8,268,341.8,267.9C341.9,268,341.8,268,341.8,267.9z"/>
					<path class="st0" d="M350.1,287.8c0-0.2,0-0.4,0-0.6C350.1,287.2,350.1,287.4,350.1,287.8z"/>
					<path class="st0" d="M350.3,287.6c0,0.2,0,0.3,0,0.4C350.4,288.1,350.5,288,350.3,287.6z"/>
					<path class="st0" d="M350,286.4c0.1,0.3,0.1,0.5,0.1,0.8c0-0.1,0-0.1,0-0.1C350.1,286.9,350.1,286.7,350,286.4z"/>
					<path class="st0" d="M293,350.2c0,0,0.1,0,0.1,0C293.6,350,293.4,350,293,350.2z"/>
					<path class="st0" d="M306.8,277.2C306.8,277.2,306.8,277.1,306.8,277.2C306.8,277.1,306.8,277.1,306.8,277.2L306.8,277.2z"/>
					<path class="st0" d="M305.2,277.8c0.6-0.7,1-0.7,1.6-0.7L306,276L305.2,277.8z"/>
					<path class="st0" d="M282,314.2l0.1-1.2c0.9,1.3,0.9,2.3,1.2,1.1c-1.4,0.1-1.1-4.5-2.4-4.4l0.1-0.8c0,0.2,0.1,0.2,0.2,0.5
						c0.3-1.6-1.2-0.9-1.4-2.9c0-0.7,0.1-1.2,0.3-0.8l-0.6-1.4c-0.1-0.4,0.2-0.4,0.3,0.1l-0.6-2.3l0,0c-0.3-0.3-0.8-1-1-1.3
						c0.1-0.6,0.2,0.3,0.3,0.1l-0.6-1.2c0.2-0.6,0.8,0.4,0.9,1.3c1.1-1.5-0.6-1-0.3-3.7l0.4,1.2c0.6-0.9,0.1-1.8,0.3-3.3
						c-0.2,0.4-0.6,3-1.2,1.6c0-0.4,0-0.9-0.5-1.6c0.5-0.1,0.2-0.8,0-1.7l0.6-0.1c-0.4-0.9-0.7-0.8-1.1-1.3
						c-0.2-1.1,0.3-1.4,0.6-1.8c-0.3-1.8-0.5,1.4-1.1-0.7c-0.1-1.5-0.5-2.5-1.3-4.1c0.1-0.5,0.4,0,0.6-0.2c-0.2-0.1-0.4-0.2-0.6-0.4
						c0-0.1,0.2,0,0.2,0c-0.3-0.4-0.7-0.1-1-0.9c-0.4-0.2-0.3-0.5-0.1-0.8c0.4,0.1,0.8,0.1,1.1,0.1c0.3,0,0.5-0.1,0.6-0.3
						c0.3,0.1,0.1,0.4,0.3,0.6c0.1-0.2,0.3-0.3,0.4-0.4c0.3-0.1,0.5-0.2,0.6-0.3c0.4-0.2,0.7-0.4,1.4-0.9l1.5,0.1
						c-1.1-0.3,0.1-1.1,1.2-1.8c-0.4-0.2-0.8-0.3-1-0.3l1.8-0.7c0.2,0.1,0.1,0.3-0.1,0.6c0.1-0.1,0.2-0.2,0.3-0.2
						c0.7,0.1,0.4,0.5,0,1c-0.3-0.1-0.5-0.2-0.8-0.2c-0.4,0.5-0.7,1-0.6,1.3c0.1-0.1,0.3-0.2,0.6-0.3c-0.1,0.1-0.2,0.2-0.1,0.3
						c0.1,0.1,0.2-0.1,0.5-0.3l0.6,0.6l0-0.3l2.5-0.1c1.6-1.1,2.9-2.4,5.6-3.3c-0.6,0.7,0,0.9,0.1,1.5c-0.9-0.5-2.1,0.7-3.6,0.9
						c0.8-0.1,0.7,0.2,0.5,0.4l2.4-1.1c0,0.5,0.6,0.3,1.3,0.3c-0.7-0.9,1.8-1,2.8-1.6c0.1,0.3,0,0.7-1.3,0.9
						c1.6,0.4,1.6-1.5,3.1-1.2c-0.3,0.1-0.5,0.1-0.6,0.2c0.7-0.4,2.5-0.6,2.1-0.2l-0.3,0.1c2.1-0.3,6.3-1.3,6.4-2.2
						c0,0.1-0.1,1.1-0.2,1.3l3.1-3.6c-0.2,0.8,1.4,2.2-0.2,3c0.5,0,1.1,0,2.1-0.5c-0.4,0-1-0.9-0.6-1c1.4,0.5,1,0.2,2.6,0.6
						c-0.5,0-0.2-1.3,0.6-1.4c-0.1,0.2,0.3,1.1,0,1.3l1.7-1.5c-0.5,0.3,0.1,1,0.6,1.2c-0.2-0.2,1.7-0.3,2.2-0.6l-0.9-0.1
						c2.3-0.3,1.9-2,4.1-2.4c-0.2,0.3-0.4,1.5,0.8,1.4c0.4-0.7,1.7-3.2,3.6-4l0.4,0.2l1.4-0.7c-0.8,1-3,3.4-4.3,4.4
						c0.9,0.1,0.3,0.3,1.6,0c0.5,0.2-0.6,0.6-0.9,0.7l2.9-0.4c-0.3-0.6,2.1-1.1,1.9-1.6l-3,1.3c-0.3-0.6,1.4-2.2,3.5-2.6
						c0.6,0.2-0.1,1.3-0.1,1.5c0.2-0.3,1.9-0.8,2.1-0.7l-0.8,0.5c1.2,0,1.7-1.3,3.2-0.9c0.5-0.1,1.6,0.6,1.6,0.1
						c-0.9-0.6-1.6-2.9-1.2-3.6c0.2,0,2.6,0.2,3.3,0.5c0.9,0.4-0.9,1.6-0.1,2c0-0.2,0.4-0.5,0.5-0.6c0.5,0.1-0.1,0.6,1,0.3
						c0-0.7,2.2-0.4,0.4-0.7c1-0.4,1.2-0.1,2.4-0.4c-0.3-0.2,0-0.6,0.3-1c0.4-0.4,1.1-0.9,1.7-1.1c-0.1,0.2,0.1,0.4,0.1,0.5
						c0.6-0.1,1-0.2,1.5-0.2c0.2,1.4,0.2,2.4,0.5,3.7c-0.1,0.2-0.1,1.2-0.5,0.9c0.2,0.3,0.5,0.5,0.6,1.1c-0.3,1.3-0.4-1.4-0.9-0.3
						c0.4,0,0.9,1.5,1.3,2.3c0.5-0.4-0.3-2.1-0.7-2.9c0.8-0.2,2,1.2,2.8,3.2c0.6,1.6-0.4,0.8-0.2,1.1c0.5,3.2,2,2.4,1.9,5.2
						c-0.3,1.2-1,0.3-1.4,0.6c-0.5-1.3-0.1-2.2-0.3-3.1l0,1.2c-0.3-0.4-0.6-1.3-0.5-1.8c-0.3,1,1,5.4,1.1,7.9
						c0.3,0.4,0.6,1.1,0.7,0.7l-0.2-0.8c0.3-0.8,0.9,1.3,0.9,0.3c0.5,1,1.2,2,1.3,3.5l-0.5,0.4c0.2-0.1,0.2-1-0.1-1.4
						c0.4,0.6-0.3,2.4,0.6,2.9l0.2-1.1c0.5,1,1.4,2.1,1.5,3.5c0.5-0.7-0.1-0.3,0.4-1.3c-0.7,1-0.6-3.3-1.3-1.8
						c0.6-1.1,0-1.7,0.4-3.1c-0.2,0.1-0.3,0.5-0.4-0.6c-0.1,0-0.2-0.1-0.2-0.2c0,0,0,0,0-0.1c0,0,0,0,0,0.1c0,0,0,0,0,0
						c0,0.3-0.1,0.5-0.2,0.6c-0.6-0.4-0.9-2.2-1.3-2.7c0-0.7,0.3,0.2,0.4-0.2l-0.5-0.8c0.4-0.2,0.4-1.9,0.9-0.4l-0.3-1.4
						c0.1-0.9-0.1-2-0.4-2.6c0-0.7-0.8-1.5-0.4-1l-0.7-2.1l0.1,0c-0.2-1.1-0.6-2.1-0.9-3.2c-0.2-0.6-0.3-1.1-0.4-1.7
						c0-0.3-0.1-0.6-0.1-0.9c0-0.2,0-0.3,0-0.5c0-0.2,0-0.5,0-0.7c-0.4-1.2-0.7-2.2-1-4.2l0.2-0.8c-0.1-0.2-0.1-0.5-0.2-0.9
						c-1.6,0.3-3.9,0.4-4.5,0.9c-0.4-0.2-1.1-0.2-2-0.1c-0.6,0-1.1,0.1-1.7,0.3c-1.2,0.3-2.4,0.7-3.2,0.8l0,0.5
						c-1.1,0.2-2.1,0.6-3.5,1l0.2,0.4c-1.1,0.6-3.1,0.3-5,0.7c0.1-0.2,0.6-0.2,0.9-0.2c-2.4-0.5-4.6,1.7-6.7,1.4
						c-0.5,0.3-0.8,0.3-1.2,0.2c0,0,0.1,0,0.1,0c-0.1,0-0.1,0-0.2,0c-0.2,0-0.5-0.1-0.8-0.1c0.2,0.1,0.5,0.1,0.6,0.1
						c-0.4,0.1-1,0.3-1.5,0.5l-0.3-0.4c0,0-0.1,0-0.1,0c-0.6-0.1-0.4,0.3,0,0.6c-0.3,0.1-0.5,0.3-0.7,0.4c-0.6-0.7-1.5,0.6-2.3-0.1
						c-0.3,0.5-2.9,0.9-3,1.8c0-0.1-0.2-0.1,0.1-0.2c-0.7,0-1.3,0.1-1.9,0.4l-0.4-0.5l-1.2,1.1c-0.9-0.2-1.3-0.3-0.6-1
						c-1.9,1.1-1.6,0.6-3.2,1.7l0-0.4c-0.6,0.1-1.5,0.9-2,0.6c-1.5-0.4-6.9,1.3-10.7,1.4c0.9,1-1.8-0.2-1.7,0.7
						c-0.3-0.2-0.8-0.3-0.3-0.6c-1.8,0.6-2.8,0.1-3.9,1.1c-0.3-0.2,0.3-0.5,0.1-0.6c-0.1,0.1-0.5,0.4-0.8,0.2
						c-0.2-0.1,0.2-0.3,0.5-0.5c-1.9,0.4-1.9,1.3-1.9,2.1c-1-0.2-1.5,0-2.1,0.6c-0.4-0.2-1-0.3,0.2-0.7c-0.7,0.1-4.1,0.5-4,1.1
						c-0.1-0.1-0.3,0-0.6,0c-0.3,0.1-0.6,0.2-0.7,0.2c-2,0.4-2.2,0.4-4.1,0.8l0.6,0c0,0.3-0.1,0.4-0.4,0.5c0.1,0.5,0,1.1,0.3,2
						l-0.1-0.1c0.1,3.3,0.6,1.7,0.5,4.4l0.4-0.2c1.1,0-0.1,2.5,0.6,3.9l0.2-0.6c0.5,0.8-0.9,2.6-0.8,3.5c-0.1,0.2-0.2-0.3-0.3-0.5
						c-0.1,2.3,0.7,0.2,1.2,1.8c-0.3,0.4-0.9-0.2-0.8,0.9c-0.2,0.6,1.7,3,1.4,4.6c0.2-0.4,0.4-0.8,0.7,0c0.3,1.1-0.3,3.3,0.7,4.2
						c0,0.2-0.1,0.2-0.2,0.3c0.4,0.8,0.9,2.8,1.5,3.3c-1.5,1.2,1.9,5.4,0.4,5.6l0.6,2.7l-0.2,0c0.3,1.8,0.7,2.3,1.2,2.8
						c0,0.4-0.2,0.2-0.3,0.1c0.2,2.6,0.3,2.9,1.5,4.8l-0.4,0.3c0.4,0.5,0,3.8,1.1,6.2c-0.1,0-0.2,0-0.3-0.2c1.2,2.7,0,7,2,7.7
						l0.8,1.8c-0.4-2.4,0.8,0.2,0.9-0.8c0.3,0.9,0,2.6-0.4,1.4l0.1-0.2c-1-0.2,0.3,3.1-0.4,3.1c0.3,1.5,0.6,3,0.8,4.5
						c0.4,2.1,0.7,4.2,1.1,6.3c1.3-0.2,2.5-0.4,3.7-0.6c1.1-0.2,2.1-0.4,3.2-0.6l-0.7-0.6l1.6-0.3c0.4,0.1,0.7,0.4-0.4,0.6
						c0.7,0.3,1.8-0.7,1.8-0.9c2.2-0.2-0.7,1,0,0.9l0.9-0.2l-0.2,0c0.7-0.4,0.7-0.8,2-1c0.9,0,0.5,0.4,0.9,0.3
						c0,0.1,0.1,0.1,0.5-0.1l2-0.3l-0.9-0.4c0.8-0.5,1.8-0.3,0.8-0.8c1.5,0.7,7.3-1.1,8.2-1c1.1-0.7,2.3-0.9,3.8-1.2
						c-0.4,0-0.7-0.6,0.5-0.8c-0.2,1.4,2.5,0.1,3.7,0.8c-1-0.4,3.6-0.9,2-1.5c1.1-0.1,0.2,0.5,1,0.6c2.4-1,5.6-0.8,8.7-1.6
						c0-0.2-0.6-0.3,0.1-0.7l1.8,0.5c0.6-0.2,0.4-1.1,1.6-0.7c-0.2-0.1-0.5-0.3-0.1-0.4c6.3-0.4,12.4-3.3,18.9-3
						c-0.9-0.2-0.4-0.3,0.3-0.5c-0.4,0-0.1-0.4-0.2-0.6l2.7,0.1c0.3-0.7,2.8-0.6,2.9-1.3l-0.8,0.3c0.9-1-1.9-1.3-1.9-2.3
						c-1.1,1.1-3.5-0.6-5.3,1c-0.5-0.1,0.3-0.4,0-0.5c-0.4,0.5-1,0.7-2.2,0.8l0.1-0.1c-3.2,0.8-4.7,0.7-8.3,1.1l0.4,0.4
						c-0.8,0.1-1,0-1.4-0.1c-0.7,0.9,2.2-0.4,1.5,0.5c-1.2-0.7-5.5,1.1-6.4,0.2c-1.2,0.2,0.5,0.5-0.7,0.7l-0.4-0.2l-0.2,0.4
						c-0.8,0.1-1.3-0.2-1.3-0.4c0.2,0,0.5-0.2,0.7-0.2c-1.1-0.1-2.8,0.7-3.2,0.7l1.2-0.1c-3.2,0.9-7.3,1.4-10.3,2.6l0.3,0.2
						c-2.3,0.9-2,0.2-4.6,0.9l0.1-0.1c-0.5,0.3-1.2,0.6-1.9,0.7c0.6-0.4-1.4-0.2-0.5-0.7c-2.5,1-1.2,0.6-2.8,1.8l-0.5-0.3
						c-0.5,0.4-0.5,0.6-1.8,1c1-0.5-1-0.4,0.2-1c-2.9-0.2-3.9,1.7-5.4,0.8c-1.1,1.3,2.5,0.1,1.8,0.4c0.7,0.2-0.9,1-1.8,1
						c-0.9,0.2-1.8-1-4-0.5c0.2,0,0.2-0.1,0.4-0.2c-0.9-0.1-1.6,0.7-2.7,0.5c-0.4,0.7-1.3,0.2-1.3,1l2-0.6c-1.1,0.4-2,1.6-4,1.5
						c0.1-0.2,0.6-0.5,1-0.7c-0.6-0.1-1,0.4-1.7,0.3c0-0.8,2.4-0.7,3.6-1.5c-0.7-0.2-2.2,1-1.8,0.1c-0.3,0.6-0.9,0.7-1.5,0.8
						c-0.2,0-0.3,0-0.5,0.1l-0.3,0l-0.1,0l-0.1,0c-0.2,0.1-0.3,0.2-0.5,0.4l0.1-0.5c-0.1,0.1-0.4,0.4-0.6,0.4
						c0.2-0.3,0.4-0.5,0.5-0.7c-0.4,0.4-0.6,0.2-0.7,0c0-0.2,0.1-0.4,0-0.4c0,0.2,0,0.4,0,0.5c0,0.2-0.6,0.7-0.4,0.9
						c-0.1,0-0.2,0.1-0.2,0.1c-0.3-0.5-0.1-1.1,0.2-1.5c0.1-0.2,0.3-0.4,0.4-0.6c0-0.1,0.1-0.2,0.1-0.2c0-0.2-0.1-0.6-0.2-1
						c0.1,0.2,0.1,0.7,0.1,1c-0.1,0.2-0.2,0.2-0.3,0.1c0-0.6,0-1.5,0.1-2c-0.6-2.2-0.4,0.4-0.9-0.5c0.4-0.9-0.5-1.1-0.8-2l0.5-0.1
						c-0.2-2.6-1.1-0.5-1.2-2.8l0.9,0.8l-0.4-1.2l0.6,0.1c-0.7-1.2-0.6-1.6-0.8-3c-0.3,0.4-0.9,0-1.1-1.1c0.1-0.8,0.5,0.3,0.1-1.2
						c0.4,0.3,0.8,0.6,0.5,1.4c0.2,0,0.4,0.3,0.5,0.3c0.2-0.9-0.4-2.1-0.5-2.7c0,0.2,0.1,0.5,0,0.6l-1.1-2.2
						c0.1-0.4,0.3-0.1,0.5,0.1c-0.1-0.5-0.4-0.7-0.6-1.4c0.4,0.1,0.8,0,1.2,0.9l-0.9-2.1c0.1-0.2,0.2-1.2,0.4-1
						c0-1.3-1.4-2.9-1.4-4.5c-0.1-0.1-0.2-0.2-0.3-0.6c-0.2-1.5,0-3-0.9-4.7l0.5-1.2c-0.4-1.4-0.6,1.6-1.3-0.7
						c-0.6-1.6,0.5-0.7,0.5-1.4c-0.5-0.8-1.5-2.1-1.3-3.7C281.8,313.4,281.8,313.8,282,314.2z M278,296.8c0.2,0.3,0.6,0.9,0.4,1.2
						C277.8,297.8,278,297.4,278,296.8z M284.5,280.8c-0.2,0.2-0.6,0.2-1.1,0.1C283.7,280.8,284,280.7,284.5,280.8z M348.7,282
						C348.7,282,348.7,282,348.7,282C348.7,281.2,348.7,281.5,348.7,282z M348.9,283.6c0.1,0.1,0.2,0.1,0.2,0
						c-0.1-0.1-0.2-0.4-0.3-0.8C348.7,283,348.6,283.2,348.9,283.6z M298.6,352.4l-0.3-0.1C299,352,298.8,352.2,298.6,352.4z"/>
					<path class="st0" d="M281.6,282c-0.1-0.1-0.2-0.1-0.2-0.2C281.3,281.9,281.3,282,281.6,282z"/>
					<path class="st0" d="M284.5,325.1L284.5,325.1c0,0.1,0.1,0.1,0.1,0.1L284.5,325.1z"/>
					<path class="st0" d="M336,271.1c-0.3,0-0.5-0.1-0.7-0.1C335.3,271.1,335.5,271.2,336,271.1z"/>
					<path class="st0" d="M351.4,291.8l-0.3-1c0.1,0.5,0.1,0.7,0,0.9C351.2,291.7,351.3,291.5,351.4,291.8z"/>
					<path class="st0" d="M350.3,301.1c0.1,0.1,0.1,0.3,0.2,0.4l0.2-0.1C350.5,300.8,350.2,300.4,350.3,301.1z"/>
					<path class="st0" d="M350,293c-0.4,0.2-0.1,0.8,0.1,1.5c0,0,0-0.1,0-0.1C350.7,294.5,350.3,293.7,350,293z"/>
					<path class="st0" d="M350.1,294.7c0.1,0.2,0.1,0.4,0.1,0.6C350.5,295.3,350.3,295,350.1,294.7z"/>
					<path class="st0" d="M349.5,285.6c0,0.4,0.6,0.1,0.4,0.3C350.5,286.2,348.9,283.8,349.5,285.6z"/>
					<polygon class="st0" points="348.8,293.9 349.2,293.5 348.8,293.2 					"/>
					<path class="st0" d="M348,288.2l0.1,1.2c0.1,0,0.2,0.1,0.2,0.3C348.2,289,348.2,288.2,348,288.2z"/>
					<path class="st0" d="M348.3,289.7c0.1,0.4,0.1,0.7,0.3,0.9C348.6,290.4,348.5,289.9,348.3,289.7z"/>
					<polygon class="st0" points="348.3,292.4 348.4,292 348.2,291.2 					"/>
					<path class="st0" d="M345.6,276.1l-0.4-1.2c-0.2-0.1-0.2,0.3-0.1,0.7C345.3,275.9,345.5,276.4,345.6,276.1z"/>
					<path class="st0" d="M345,280.1c0-0.4,0.1-0.4,0.3-0.6l-0.6,0.1L345,280.1z"/>
					<path class="st0" d="M344.2,276.6c-0.2-0.1-0.9-1.7-0.5-0.1C343.9,276.5,344.2,277.7,344.2,276.6z"/>
					<polygon class="st0" points="333.7,269.8 334,269.7 333.8,268.8 					"/>
					<path class="st0" d="M317.9,275.6c1.5-0.1,0.2-0.7,1.6-0.7c0.3-0.3-1.1,0-0.8-0.3C317.8,275.1,317.4,275,317.9,275.6z"/>
					<path class="st0" d="M318.7,274.6c0.1-0.1,0.3-0.1,0.4-0.2C318.8,274.5,318.7,274.6,318.7,274.6z"/>
					<polygon class="st0" points="355.9,341.1 356.8,341.1 356.2,340.9 					"/>
					<path class="st0" d="M357.5,340l0.4,0.6l0.4-0.7C358.1,339.9,357.7,340.1,357.5,340z"/>
					<path class="st0" d="M278.8,293.9l-0.2,0c-0.1,0.2-0.1,0.4,0,0.8L278.8,293.9z"/>
					<polygon class="st0" points="280.9,306.7 280.9,306.5 280.4,307 					"/>
					<path class="st0" d="M283.9,317.2c-0.1-0.4-0.3-0.9-0.4-1.4C283.8,316.8,283.2,317.5,283.9,317.2z"/>
				</g>
			</g>
		</g>
	</g>
</g>
<rect x="249.4" y="57.9" class="st2" width="33.1" height="33.1"/>
<g>
</g>
<g>
</g>
<g>
</g>
<g>
</g>
<g>
</g>
<g>
</g>
</svg>
