<?xml version="1.0" encoding="utf-8"?>
<!-- Generator: Adobe Illustrator 26.1.0, SVG Export Plug-In . SVG Version: 6.00 Build 0)  -->
<svg version="1.1" id="Layer_1" xmlns="http://www.w3.org/2000/svg" xmlns:xlink="http://www.w3.org/1999/xlink" x="0px" y="0px"
	 viewBox="0 0 332.9 348.1" style="enable-background:new 0 0 332.9 348.1;" xml:space="preserve">
<style type="text/css">
	.st0{fill:none;stroke:#D1D3D4;stroke-width:4;stroke-miterlimit:10;}
	.st1{fill:none;stroke:#D1D3D4;stroke-width:6;stroke-miterlimit:10;}
</style>
<g id="marpich">
	<g>
		<g>
			<ellipse class="st0" cx="163.4" cy="173.3" rx="133.6" ry="137.8"/>
			<ellipse class="st0" cx="163.4" cy="173.3" rx="123.3" ry="127.2"/>
			<ellipse class="st0" cx="163.4" cy="173.3" rx="113" ry="116.6"/>
			<ellipse class="st0" cx="163.4" cy="173.3" rx="102.7" ry="106"/>
			<ellipse class="st0" cx="163.4" cy="173.3" rx="92.5" ry="95.4"/>
			<ellipse class="st0" cx="163.4" cy="173.3" rx="82.2" ry="84.8"/>
			<ellipse class="st0" cx="163.4" cy="173.3" rx="71.9" ry="74.2"/>
			<ellipse class="st0" cx="163.4" cy="173.3" rx="61.6" ry="63.6"/>
			<ellipse class="st0" cx="163.4" cy="173.3" rx="51.4" ry="53"/>
			<ellipse class="st0" cx="163.4" cy="173.3" rx="41.1" ry="42.4"/>
			<ellipse class="st0" cx="163.4" cy="173.3" rx="30.8" ry="31.8"/>
			<ellipse class="st0" cx="163.4" cy="173.3" rx="20.5" ry="21.2"/>
			<ellipse class="st0" cx="163.4" cy="173.3" rx="10.3" ry="10.6"/>
		</g>
		<g>
		</g>
	</g>
</g>
<g>
</g>
<g>
	<g>
		<path class="st1" d="M-271.4,592.2c0-0.6,0-1,0-1S-271.4,591.7-271.4,592.2s0,1,0,1S-271.4,592.8-271.4,592.2z"/>
		<path class="st1" d="M-271.4,592.4c0,0,0-0.1,0-0.2c0-0.1,0-0.2,0-0.2s0,0.1,0,0.2C-271.4,592.3-271.4,592.4-271.4,592.4z"/>
		<path class="st1" d="M-271.4,592.2C-271.4,592.2-271.4,592.2-271.4,592.2C-271.4,592.2-271.4,592.2-271.4,592.2
			C-271.4,592.3-271.4,592.3-271.4,592.2C-271.4,592.3-271.4,592.3-271.4,592.2z"/>
		<polygon class="st1" points="-271.4,592.2 -271.4,592.2 -271.4,592.2 -271.4,592.2 		"/>
		<polygon class="st1" points="-271.4,592.2 -271.4,592.2 -271.4,592.2 -271.4,592.2 		"/>
		<polygon class="st1" points="-271.4,592.2 -271.4,592.2 -271.4,592.2 -271.4,592.2 		"/>
		<rect x="-271.4" y="592.2" class="st1" width="0" height="0"/>
		<rect x="-271.4" y="592.2" class="st1" width="0" height="0"/>
		<rect x="-271.4" y="592.2" class="st1" width="0" height="0"/>
		<rect x="-271.4" y="592.2" class="st1" width="0" height="0"/>
		<rect x="-271.4" y="592.2" class="st1" width="0" height="0"/>
		<rect x="-271.4" y="592.2" class="st1" width="0" height="0"/>
		<rect x="-271.4" y="592.2" class="st1" width="0" height="0"/>
		<rect x="-271.4" y="592.2" class="st1" width="0" height="0"/>
		<rect x="-271.4" y="592.2" class="st1" width="0" height="0"/>
		<rect x="-271.4" y="592.2" class="st1" width="0" height="0"/>
		<rect x="-271.4" y="592.2" class="st1" width="0" height="0"/>
		<rect x="-271.4" y="592.2" class="st1" width="0" height="0"/>
		<rect x="-271.4" y="592.2" class="st1" width="0" height="0"/>
		<rect x="-271.4" y="592.2" class="st1" width="0" height="0"/>
		<rect x="-271.4" y="592.2" class="st1" width="0" height="0"/>
		<rect x="-271.4" y="592.2" class="st1" width="0" height="0"/>
		<rect x="-271.4" y="592.2" class="st1" width="0" height="0"/>
	</g>
	<g>
	</g>
</g>
<g>
</g>
<g>
</g>
<g>
</g>
<g>
</g>
<g>
</g>
<g>
</g>
</svg>
