<?xml version="1.0" encoding="utf-8"?>
<!-- Generator: Adobe Illustrator 26.1.0, SVG Export Plug-In . SVG Version: 6.00 Build 0)  -->
<svg version="1.1" id="Layer_1" xmlns="http://www.w3.org/2000/svg" xmlns:xlink="http://www.w3.org/1999/xlink" x="0px" y="0px"
	 viewBox="0 0 297.3 278.7" style="enable-background:new 0 0 297.3 278.7;" xml:space="preserve">
<style type="text/css">
	.st0{fill:none;}
	.st1{fill:#BCBEC0;}
</style>
<g>
	<path class="st0" d="M81,41.4l182.7,115.9c0.8-4.7,1.3-9.5,1.4-14.4L93.5,33.9C89.1,36.1,85,38.6,81,41.4z"/>
	<path class="st0" d="M257.2,95.1L140.1,20.9c-6.7,0.4-13.2,1.4-19.6,2.9l142.3,90.3C261.4,107.5,259.5,101.2,257.2,95.1z"/>
	<path class="st0" d="M30.2,136.8l168.9,107.1c4.4-2.2,8.7-4.6,12.8-7.3L31.3,122.1C30.6,126.9,30.2,131.8,30.2,136.8z"/>
	<path class="st0" d="M68.1,224.7l35.4,22.4c11.7,4.7,24.3,7.7,37.5,8.4l-96.6-61.3C50.6,205.7,58.7,216,68.1,224.7z"/>
	<path class="st0" d="M40.2,185.7l110.4,70c7-0.2,13.9-1,20.6-2.3L33.5,166.1C35.2,172.9,37.4,179.4,40.2,185.7z"/>
	<path class="st0" d="M235.8,60.3l-55.2-35c-10-2.9-20.6-4.5-31.5-4.6l104.5,66.3C248.8,77.2,242.8,68.3,235.8,60.3z"/>
	<path class="st0" d="M66.4,53.3l192.8,122.3c1.4-4.3,2.6-8.6,3.6-13.1L76.7,44.5C73.1,47.3,69.6,50.2,66.4,53.3z"/>
	<path class="st0" d="M44.4,82l198.1,125.7c2.6-3.5,4.9-7.1,7.1-10.9L51.3,71C48.8,74.5,46.5,78.2,44.4,82z"/>
	<path class="st0" d="M32.1,116.7l184.3,116.9c3.7-2.7,7.3-5.6,10.6-8.6L35.4,103.4C34,107.8,33,112.2,32.1,116.7z"/>
	<path class="st0" d="M37,98.6l193.7,122.9c3.1-3.1,6-6.4,8.8-9.8L42.1,86.4C40.2,90.4,38.5,94.4,37,98.6z"/>
	<path class="st0" d="M54.2,66.9l197.8,125.5c2-3.9,3.8-7.8,5.4-11.9L62.7,57C59.7,60.1,56.9,63.4,54.2,66.9z"/>
	<path class="st0" d="M32,159.2L178,251.8c5.4-1.4,10.6-3.2,15.7-5.4L30.3,142.8C30.5,148.4,31.1,153.9,32,159.2z"/>
	<path class="st0" d="M113.9,25.6c-5.2,1.6-10.3,3.5-15.2,5.7l166.5,105.6c-0.1-5.5-0.5-10.9-1.3-16.2L113.9,25.6z"/>
	<path class="st1" d="M103.5,247.1l-35.4-22.4C78.4,234.1,90.4,241.8,103.5,247.1z"/>
	<path class="st1" d="M44.4,194.3l96.6,61.3c2.2,0.1,4.5,0.2,6.7,0.2c1,0,1.9,0,2.9,0l-110.4-70C41.5,188.6,42.9,191.5,44.4,194.3z"
		/>
	<path class="st1" d="M33.5,166.1l137.7,87.3c2.3-0.5,4.6-1,6.8-1.6L32,159.2C32.5,161.6,33,163.8,33.5,166.1z"/>
	<path class="st1" d="M30.2,138.2c0,1.5,0,3.1,0.1,4.6l163.4,103.7c1.8-0.8,3.6-1.6,5.4-2.5L30.2,136.8
		C30.2,137.2,30.2,137.7,30.2,138.2z"/>
	<path class="st1" d="M31.3,122.1l180.6,114.6c1.5-1,3-2,4.5-3.1L32.1,116.7C31.8,118.5,31.5,120.3,31.3,122.1z"/>
	<path class="st1" d="M35.4,103.4L227,225c1.3-1.2,2.5-2.3,3.7-3.6L37,98.6C36.4,100.2,35.9,101.8,35.4,103.4z"/>
	<path class="st1" d="M42.1,86.4l197.4,125.2c1-1.3,2.1-2.6,3.1-4L44.4,82C43.6,83.5,42.9,84.9,42.1,86.4z"/>
	<path class="st1" d="M51.3,71l198.4,125.8c0.8-1.4,1.6-2.9,2.4-4.4L54.2,66.9C53.2,68.2,52.2,69.6,51.3,71z"/>
	<path class="st1" d="M62.7,57l194.7,123.5c0.6-1.6,1.2-3.2,1.7-4.8L66.4,53.3C65.1,54.5,63.9,55.7,62.7,57z"/>
	<path class="st1" d="M76.7,44.5l186.1,118c0.4-1.8,0.7-3.5,1-5.3L81,41.4C79.6,42.4,78.1,43.4,76.7,44.5z"/>
	<path class="st1" d="M93.5,33.9l171.7,108.9c0.1-1.5,0.1-3.1,0.1-4.6c0-0.4,0-0.8,0-1.3L98.7,31.3C96.9,32.1,95.2,33,93.5,33.9z"/>
	<path class="st1" d="M262.8,114.1L120.5,23.8c-2.2,0.5-4.4,1.1-6.6,1.8L264,120.8C263.7,118.5,263.3,116.3,262.8,114.1z"/>
	<path class="st1" d="M253.5,86.9L149,20.6c-0.4,0-0.9,0-1.3,0c-2.6,0-5.1,0.1-7.7,0.3l117.1,74.3C256.1,92.3,254.8,89.6,253.5,86.9
		z"/>
	<path class="st1" d="M180.5,25.3l55.2,35C221.2,43.9,202.2,31.5,180.5,25.3z"/>
</g>
<g>
</g>
<g>
</g>
<g>
</g>
<g>
</g>
<g>
</g>
<g>
</g>
</svg>
